<svg xmlns="http://www.w3.org/2000/svg" viewBox="0 0 1200 400" fill="none">
  <defs>
    <linearGradient id="bGrad" x1="0%" y1="0%" x2="100%" y2="100%">
      <stop offset="0%" stop-color="#9945FF"/>
      <stop offset="100%" stop-color="#14F195"/>
    </linearGradient>
  </defs>

  <rect width="1200" height="400" fill="#0a0a0f"/>

  <g opacity="0.025" stroke="white" stroke-width="0.5">
    <line x1="100" y1="0" x2="100" y2="400"/><line x1="200" y1="0" x2="200" y2="400"/>
    <line x1="300" y1="0" x2="300" y2="400"/><line x1="400" y1="0" x2="400" y2="400"/>
    <line x1="500" y1="0" x2="500" y2="400"/><line x1="600" y1="0" x2="600" y2="400"/>
    <line x1="700" y1="0" x2="700" y2="400"/><line x1="800" y1="0" x2="800" y2="400"/>
    <line x1="900" y1="0" x2="900" y2="400"/><line x1="1000" y1="0" x2="1000" y2="400"/>
    <line x1="1100" y1="0" x2="1100" y2="400"/>
    <line x1="0" y1="80" x2="1200" y2="80"/><line x1="0" y1="160" x2="1200" y2="160"/>
    <line x1="0" y1="240" x2="1200" y2="240"/><line x1="0" y1="320" x2="1200" y2="320"/>
  </g>

  <circle cx="200" cy="200" r="250" fill="#9945FF" opacity="0.06"/>
  <circle cx="1000" cy="220" r="200" fill="#14F195" opacity="0.04"/>

  <rect x="514" y="70" width="56" height="56" rx="14" fill="url(#bGrad)"/>
  <path d="M542 82l-8 20h7l-5 22 16-26h-8l6-16z" fill="white" fill-opacity="0.95"/>

  <text x="586" y="114" font-family="system-ui, -apple-system, sans-serif" font-size="52" font-weight="800" letter-spacing="-2" fill="white">iPay</text>
  <text x="600" y="168" text-anchor="middle" font-family="system-ui, sans-serif" font-size="20" font-weight="300" fill="#999" letter-spacing="1">The Square of PayFi</text>
  <text x="600" y="200" text-anchor="middle" font-family="system-ui, sans-serif" font-size="13" fill="#555" letter-spacing="3">PAYMENTS · LOYALTY · AI ON SOLANA</text>

  <rect x="450" y="224" width="300" height="1" fill="url(#bGrad)" opacity="0.2"/>

  <g font-family="'SF Mono', monospace" text-anchor="middle">
    <text x="200" y="275" font-size="18" font-weight="700" fill="#9945FF">21</text>
    <text x="200" y="295" font-size="9" fill="#555" letter-spacing="1.5">ON-CHAIN INSTRUCTIONS</text>

    <text x="400" y="275" font-size="18" font-weight="700" fill="#14F195">18,835</text>
    <text x="400" y="295" font-size="9" fill="#555" letter-spacing="1.5">LINES OF CODE</text>

    <text x="600" y="275" font-size="18" font-weight="700" fill="#9945FF">12</text>
    <text x="600" y="295" font-size="9" fill="#555" letter-spacing="1.5">REST APIs</text>

    <text x="800" y="275" font-size="18" font-weight="700" fill="#14F195">AI</text>
    <text x="800" y="295" font-size="9" fill="#555" letter-spacing="1.5">LLM POWERED</text>

    <text x="1000" y="275" font-size="18" font-weight="700" fill="#9945FF">0.5%</text>
    <text x="1000" y="295" font-size="9" fill="#555" letter-spacing="1.5">PLATFORM FEE</text>
  </g>

  <g fill="#1a1a2e">
    <rect x="300" y="260" width="1" height="45"/><rect x="500" y="260" width="1" height="45"/>
    <rect x="700" y="260" width="1" height="45"/><rect x="900" y="260" width="1" height="45"/>
  </g>

  <rect x="0" y="360" width="1200" height="40" fill="#06060a"/>
  <text x="600" y="384" text-anchor="middle" font-family="system-ui, sans-serif" font-size="11" fill="#444" letter-spacing="3">BUILT BY XPANDIA · XPANDIA.CO</text>

  <rect x="0" y="0" width="1200" height="2" fill="url(#bGrad)" opacity="0.5"/>
</svg>
